{"accessors" : [{"bufferView" : 0, "byteOffset" : 0, "componentType" : 5123, "count" : 282, "type" : "SCALAR", "max" : [236], "min" : [0]}, {"bufferView" : 1, "byteOffset" : 0, "componentType" : 5126, "count" : 237, "type" : "VEC3", "max" : [1, 1.0000014305114746, 1], "min" : [-1, -1.0000014305114746, -1.1221041679382324], "name" : "POSITION"}, {"bufferView" : 1, "byteOffset" : 12, "componentType" : 5126, "count" : 237, "type" : "VEC3", "max" : [1.0000044107437134, 1.0000044107437134, 1.0000044107437134], "min" : [-1.0000044107437134, -1.0000044107437134, -1.0000044107437134], "name" : "NORMAL"}, {"bufferView" : 1, "byteOffset" : 24, "componentType" : 5126, "count" : 237, "type" : "VEC2", "max" : [0.875, 1], "min" : [0, 0], "name" : "TEXCOORD_0"}], "asset" : {"generator" : "Aspose.3D 23.11.1", "version" : "2.0"}, "buffers" : [{"uri" : "data:application/octet-stream;base64,", "byteLength" : 9596}], "bufferViews" : [{"buffer" : 0, "byteOffset" : 0, "byteLength" : 564, "target" : 34963}, {"buffer" : 0, "byteOffset" : 568, "byteLength" : 9024, "byteStride" : 32, "target" : 34962}], "materials" : [{"name" : "Material", "pbrMetallicRoughness" : {"baseColorFactor" : [0.800000011920929, 0.800000011920929, 0.800000011920929, 1], "metallicFactor" : 0, "roughnessFactor" : 0.5}, "emissiveFactor" : [0, 0, 0], "alphaMode" : "OPAQUE", "doubleSided" : true}], "meshes" : [{"primitives" : [{"attributes" : {"POSITION" : 1, "NORMAL" : 2, "TEXCOORD_0" : 3}, "indices" : 0, "material" : 0, "mode" : 4}]}], "nodes" : [{"matrix" : [0.2928035259246826, 0, 0, 0, 0, 1.7028626203536987, 0, 0, 0, 0, 1, 0, 0, 0, 0, 1], "mesh" : 0, "name" : "Cube"}], "scene" : 0, "scenes" : [{"nodes" : [0]}]}